<svg xmlns="http://www.w3.org/2000/svg" width="888" height="137" viewBox="0 0 888 137"><g fill="#FFF" fill-rule="evenodd"><path d="M57.49.426L0 136.212h21.75l9.697-21.425h52.227l8.728 21.425h22.72L57.49.426zm0 52.782l16.625 41.005h-34.08l17.456-41.005zM261.413.85V78.04L208.63.85H187.714v134.936h20.918V37.174l52.783 77.47v21.283h20.917V.85M410.06.426l-57.492 135.786h21.75l9.697-21.425h52.227l8.728 21.425h22.72L410.06.426zm-.14 52.782l16.763 41.005h-34.08l17.318-41.005zM609.548.85l-28.815 50.94-8.728 16.883-13.022 24.12V.852h-20.92v134.936h20.92l24.382-45.688 25.352 45.688h23.55l-36.71-66.97L633.096.85M702.78 135.786h20.088V.993H702.78M866.666.85V78.04L813.884.85H792.966v134.936h20.918V37.174l52.782 77.47v21.283h20.918V.85"/></g></svg>