<svg xmlns="http://www.w3.org/2000/svg" width="330" height="135" viewBox="0 0 330 135" style="background:#fff">
  <g fill="#010202" fill-rule="evenodd" transform="translate(0 45)">
    <polygon points="37.234 25.352 30.78 25.352 30.78 64.376 37.234 64.376 37.234 53.519 48.091 53.519 48.091 47.065 37.234 47.065"/>
    <path d="M0,89.7274528 L89.7274528,89.7274528 L89.7274528,0 L0,0 L0,89.7274528 Z M26.3767925,20.9487736 L41.6368868,20.9487736 L41.6368868,42.6625472 L48.0914151,42.6625472 L48.0914151,31.8056604 L63.3506604,31.8056604 L63.3506604,47.0649057 L52.4937736,47.0649057 L52.4937736,53.5185849 L63.3506604,53.5185849 L63.3506604,68.7778302 L48.0914151,68.7778302 L48.0914151,57.9209434 L41.6368868,57.9209434 L41.6368868,68.7778302 L26.3767925,68.7778302 L26.3767925,20.9487736 Z"/>
    <polygon points="52.494 64.376 58.948 64.376 58.948 57.922 52.494 57.922"/>
    <polygon points="52.493 42.662 58.947 42.662 58.947 36.208 52.493 36.208"/>
  </g>
</svg>
